<svg width="512" height="470" viewBox="0 0 512 470" fill="none" xmlns="http://www.w3.org/2000/svg">
<path d="M496.7 358.14C489.23 348.16 479.33 340.08 468.17 334.7C473.42 326 476.45 315.81 476.45 304.92C476.45 273.05 450.52 247.12 418.65 247.12C386.78 247.12 360.85 273.05 360.85 304.92C360.85 315.8 363.88 325.99 369.12 334.69C357.46 340.29 347.32 348.79 339.75 359.31C330.91 349.24 319.83 341.33 307.55 336.24C315.8 325.38 320.7 311.85 320.7 297.19C320.7 261.51 291.67 232.48 255.99 232.48C220.31 232.48 191.28 261.51 191.28 297.19C191.28 311.85 196.19 325.38 204.43 336.24C192.16 341.33 181.08 349.24 172.24 359.31C164.66 348.79 154.52 340.29 142.87 334.69C148.11 325.99 151.14 315.81 151.14 304.93C151.14 273.06 125.22 247.13 93.37 247.13C61.5 247.13 35.57 273.06 35.57 304.93C35.57 315.81 38.6 326 43.85 334.7C32.68 340.08 22.78 348.17 15.3 358.15C5.3 371.52 0 387.39 0 404.04V434.17C0 443.88 7.9 451.77 17.6 451.77H150.84C151.5 461.62 159.7 469.43 169.71 469.43H342.28C352.29 469.43 360.49 461.62 361.15 451.77H494.39C504.1 451.77 511.99 443.87 511.99 434.17V404.04C512 387.39 506.71 371.51 496.7 358.14ZM418.65 263.11C441.7 263.11 460.46 281.87 460.46 304.92C460.46 327.97 441.7 346.73 418.65 346.73C395.6 346.73 376.84 327.97 376.84 304.92C376.84 281.87 395.6 263.11 418.65 263.11ZM256 248.45C282.87 248.45 304.73 270.31 304.73 297.18C304.73 324.05 282.87 345.91 256 345.91C229.13 345.91 207.27 324.05 207.27 297.18C207.27 270.31 229.13 248.45 256 248.45ZM93.38 263.11C116.42 263.11 135.16 281.87 135.16 304.92C135.16 327.97 116.42 346.73 93.38 346.73C70.33 346.73 51.57 327.97 51.57 304.92C51.57 281.87 70.32 263.11 93.38 263.11ZM15.99 434.18V404.05C15.99 379.32 31.54 356.71 54.34 347.51C64.63 356.95 78.34 362.72 93.37 362.72C108.39 362.72 122.09 356.95 132.37 347.52C144.82 352.53 155.4 361.63 162.28 373.26C154.81 386.28 150.77 401.13 150.77 416.19V435.81H17.61C16.73 435.79 15.99 435.05 15.99 434.18ZM345.23 450.5C345.23 452.1 343.88 453.45 342.28 453.45H310.56V431.31C310.56 426.89 306.98 423.32 302.57 423.32C298.15 423.32 294.58 426.9 294.58 431.31V453.45H217.45V431.31C217.45 426.89 213.87 423.32 209.46 423.32C205.05 423.32 201.47 426.9 201.47 431.31V453.45H169.72C168.12 453.45 166.77 452.1 166.77 450.5V416.17C166.77 402.54 170.66 389.68 177.5 378.76C178.05 378.14 178.5 377.46 178.83 376.72C187.71 363.58 200.97 353.52 216.92 348.7C227.79 356.97 241.33 361.88 256.01 361.88C270.69 361.88 284.23 356.96 295.1 348.7C311.1 353.53 324.4 363.65 333.28 376.85C333.59 377.51 333.98 378.13 334.47 378.69C341.34 389.62 345.25 402.51 345.25 416.17V450.5H345.23ZM496.01 434.18C496.01 435.07 495.28 435.8 494.39 435.8H361.22V416.18C361.22 401.13 357.18 386.28 349.72 373.26C356.58 361.64 367.16 352.53 379.63 347.52C389.92 356.95 403.62 362.72 418.65 362.72C433.68 362.72 447.38 356.95 457.68 347.51C480.47 356.71 496.01 379.31 496.01 404.05V434.18ZM192.59 161.06H228.54L244.91 189.42C247.22 193.44 251.37 195.84 256.01 195.84C260.65 195.84 264.8 193.44 267.1 189.44L283.5 161.06H319.42C335.5 161.06 348.59 147.98 348.59 131.89V29.73C348.59 13.65 335.51 0.559998 319.42 0.559998H192.59C176.51 0.559998 163.42 13.64 163.42 29.73V131.89C163.42 147.97 176.51 161.06 192.59 161.06ZM179.41 29.73C179.41 22.46 185.32 16.55 192.59 16.55H319.41C326.68 16.55 332.59 22.46 332.59 29.73V131.89C332.59 139.16 326.68 145.07 319.41 145.07H281.65C277.01 145.07 272.86 147.47 270.56 151.47L256 176.67L241.42 151.4C239.07 147.44 234.93 145.07 230.35 145.07H192.59C185.32 145.07 179.41 139.16 179.41 131.89V29.73ZM256 136C286.43 136 311.19 111.24 311.19 80.81C311.19 50.38 286.43 25.62 256 25.62C225.57 25.62 200.81 50.38 200.81 80.81C200.81 111.24 225.57 136 256 136ZM256 41.61C277.62 41.61 295.2 59.2 295.2 80.81C295.2 102.42 277.61 120.01 256 120.01C234.39 120.01 216.8 102.42 216.8 80.81C216.8 59.2 234.38 41.61 256 41.61ZM229.69 61.93C229.69 57.51 233.27 53.94 237.68 53.94H238.19C242.61 53.94 246.18 57.52 246.18 61.93C246.18 66.34 242.6 69.92 238.19 69.92H237.68C233.27 69.92 229.69 66.35 229.69 61.93ZM265.81 61.93C265.81 57.51 269.39 53.94 273.8 53.94H274.31C278.73 53.94 282.3 57.52 282.3 61.93C282.3 66.34 278.72 69.92 274.31 69.92H273.8C269.39 69.92 265.81 66.35 265.81 61.93ZM246.06 85.91C248.08 89.48 251.89 91.7 256 91.7C260.12 91.7 263.95 89.48 265.97 85.91C268.15 82.07 273.03 80.72 276.87 82.9C280.71 85.08 282.06 89.96 279.88 93.8C275.02 102.36 265.87 107.69 256 107.69C246.15 107.69 237.01 102.37 232.15 93.8C229.97 89.96 231.32 85.08 235.16 82.9C239 80.72 243.88 82.07 246.06 85.91ZM365.81 140.29L385.97 154.87L378.23 178.54C376.45 184.02 378.38 189.94 383.04 193.29C387.67 196.67 393.9 196.67 398.56 193.28L418.65 178.63L438.7 193.25C441.03 194.97 443.77 195.83 446.51 195.83C449.22 195.83 451.94 194.99 454.26 193.3C458.96 189.9 460.87 183.94 459.05 178.53L451.33 154.87L471.42 140.32C476.12 136.98 478.07 131.03 476.28 125.53C474.51 120.07 469.46 116.41 463.7 116.41L438.84 116.46L431.22 92.79C431.22 92.78 431.22 92.78 431.21 92.77C429.44 87.31 424.39 83.65 418.65 83.65C412.91 83.65 407.86 87.32 406.08 92.79L398.43 116.47L373.55 116.42C367.82 116.42 362.79 120.09 361.04 125.46C359.2 130.93 361.11 136.9 365.81 140.29ZM404.24 132.46H404.25C407.72 132.46 410.79 130.22 411.86 126.92L418.65 105.9L425.42 126.91C426.48 130.21 429.56 132.45 433.03 132.45H433.04L455.09 132.41L437.24 145.34C434.43 147.38 433.25 150.99 434.33 154.29L441.17 175.26L423.37 162.28C420.56 160.23 416.76 160.23 413.95 162.28L396.12 175.28L402.98 154.3C404.06 151 402.88 147.37 400.07 145.34L382.2 132.42L404.24 132.46ZM40.53 140.29L60.69 154.87L52.95 178.54C51.17 184.02 53.1 189.94 57.76 193.29C62.39 196.67 68.62 196.67 73.28 193.28L93.37 178.63L113.42 193.25C115.75 194.97 118.49 195.83 121.23 195.83C123.94 195.83 126.66 194.99 128.98 193.3C133.62 189.94 135.55 184.01 133.77 178.53L126.05 154.87L146.14 140.32C150.84 136.97 152.79 131.03 151 125.53C149.23 120.07 144.18 116.4 138.42 116.4L113.55 116.45L105.9 92.77V92.76C104.13 87.3 99.09 83.63 93.36 83.63C87.62 83.63 82.57 87.3 80.79 92.77L73.14 116.45L48.26 116.4C42.52 116.4 37.47 120.07 35.7 125.53C33.94 131 35.88 136.93 40.53 140.29ZM78.96 132.46H78.97C82.44 132.46 85.51 130.22 86.58 126.92L93.36 105.93L100.14 126.92C101.21 130.22 104.28 132.46 107.75 132.46H107.76L129.81 132.42L111.96 145.35C109.15 147.39 107.97 151 109.05 154.3L115.89 175.27L98.09 162.29C95.28 160.24 91.48 160.24 88.67 162.29L70.84 175.29L77.7 154.31C78.78 151.01 77.6 147.38 74.79 145.35L56.92 132.43L78.96 132.46Z" fill="white"/>
</svg>
