<svg id="Layer_1" enable-background="new 0 0 512 512" viewBox="0 0 512 512" xmlns="http://www.w3.org/2000/svg"><path d="m496.7 379.14c-7.47-9.98-17.37-18.06-28.53-23.44 5.25-8.7 8.28-18.89 8.28-29.78 0-31.87-25.93-57.8-57.8-57.8s-57.8 25.93-57.8 57.8c0 10.88 3.03 21.07 8.27 29.77-11.66 5.6-21.8 14.1-29.37 24.62-8.84-10.07-19.92-17.98-32.2-23.07 8.25-10.86 13.15-24.39 13.15-39.05 0-35.68-29.03-64.71-64.71-64.71s-64.71 29.03-64.71 64.71c0 14.66 4.91 28.19 13.15 39.05-12.27 5.09-23.35 13-32.19 23.07-7.58-10.52-17.72-19.02-29.37-24.62 5.24-8.7 8.27-18.88 8.27-29.76 0-31.87-25.92-57.8-57.77-57.8-31.87 0-57.8 25.93-57.8 57.8 0 10.88 3.03 21.07 8.28 29.77-11.17 5.38-21.07 13.47-28.55 23.45-10 13.37-15.3 29.24-15.3 45.89v30.13c0 9.71 7.9 17.6 17.6 17.6h133.24c.66 9.85 8.86 17.66 18.87 17.66h172.57c10.01 0 18.21-7.81 18.87-17.66h133.24c9.71 0 17.6-7.9 17.6-17.6v-30.13c.01-16.65-5.28-32.53-15.29-45.9zm-78.05-95.03c23.05 0 41.81 18.76 41.81 41.81s-18.76 41.81-41.81 41.81-41.81-18.76-41.81-41.81 18.76-41.81 41.81-41.81zm-162.65-14.66c26.87 0 48.73 21.86 48.73 48.73s-21.86 48.73-48.73 48.73-48.73-21.86-48.73-48.73 21.86-48.73 48.73-48.73zm-162.62 14.66c23.04 0 41.78 18.76 41.78 41.81s-18.74 41.81-41.78 41.81c-23.05 0-41.81-18.76-41.81-41.81s18.75-41.81 41.81-41.81zm-77.39 171.07v-30.13c0-24.73 15.55-47.34 38.35-56.54 10.29 9.44 24 15.21 39.03 15.21 15.02 0 28.72-5.77 39-15.2 12.45 5.01 23.03 14.11 29.91 25.74-7.47 13.02-11.51 27.87-11.51 42.93v19.62h-133.16c-.88-.02-1.62-.76-1.62-1.63zm329.24 16.32c0 1.6-1.35 2.95-2.95 2.95h-31.72v-22.14c0-4.42-3.58-7.99-7.99-7.99-4.42 0-7.99 3.58-7.99 7.99v22.14h-77.13v-22.14c0-4.42-3.58-7.99-7.99-7.99s-7.99 3.58-7.99 7.99v22.14h-31.75c-1.6 0-2.95-1.35-2.95-2.95v-34.33c0-13.63 3.89-26.49 10.73-37.41.55-.62 1-1.3 1.33-2.04 8.88-13.14 22.14-23.2 38.09-28.02 10.87 8.27 24.41 13.18 39.09 13.18s28.22-4.92 39.09-13.18c16 4.83 29.3 14.95 38.18 28.15.31.66.7 1.28 1.19 1.84 6.87 10.93 10.78 23.82 10.78 37.48v34.33zm150.78-16.32c0 .89-.73 1.62-1.62 1.62h-133.17v-19.62c0-15.05-4.04-29.9-11.5-42.92 6.86-11.62 17.44-20.73 29.91-25.74 10.29 9.43 23.99 15.2 39.02 15.2s28.73-5.77 39.03-15.21c22.79 9.2 38.33 31.8 38.33 56.54zm-303.42-273.12h35.95l16.37 28.36c2.31 4.02 6.46 6.42 11.1 6.42s8.79-2.4 11.09-6.4l16.4-28.38h35.92c16.08 0 29.17-13.08 29.17-29.17v-102.16c0-16.08-13.08-29.17-29.17-29.17h-126.83c-16.08 0-29.17 13.08-29.17 29.17v102.16c0 16.08 13.09 29.17 29.17 29.17zm-13.18-131.33c0-7.27 5.91-13.18 13.18-13.18h126.82c7.27 0 13.18 5.91 13.18 13.18v102.16c0 7.27-5.91 13.18-13.18 13.18h-37.76c-4.64 0-8.79 2.4-11.09 6.4l-14.56 25.2-14.58-25.27c-2.35-3.96-6.49-6.33-11.07-6.33h-37.76c-7.27 0-13.18-5.91-13.18-13.18zm76.59 106.27c30.43 0 55.19-24.76 55.19-55.19s-24.76-55.19-55.19-55.19-55.19 24.76-55.19 55.19 24.76 55.19 55.19 55.19zm0-94.39c21.62 0 39.2 17.59 39.2 39.2s-17.59 39.2-39.2 39.2-39.2-17.59-39.2-39.2 17.58-39.2 39.2-39.2zm-26.31 20.32c0-4.42 3.58-7.99 7.99-7.99h.51c4.42 0 7.99 3.58 7.99 7.99s-3.58 7.99-7.99 7.99h-.51c-4.41 0-7.99-3.57-7.99-7.99zm36.12 0c0-4.42 3.58-7.99 7.99-7.99h.51c4.42 0 7.99 3.58 7.99 7.99s-3.58 7.99-7.99 7.99h-.51c-4.41 0-7.99-3.57-7.99-7.99zm-19.75 23.98c2.02 3.57 5.83 5.79 9.94 5.79 4.12 0 7.95-2.22 9.97-5.79 2.18-3.84 7.06-5.19 10.9-3.01s5.19 7.06 3.01 10.9c-4.86 8.56-14.01 13.89-23.88 13.89-9.85 0-18.99-5.32-23.85-13.89-2.18-3.84-.83-8.72 3.01-10.9s8.72-.83 10.9 3.01zm119.75 54.38 20.16 14.58-7.74 23.67c-1.78 5.48.15 11.4 4.81 14.75 4.63 3.38 10.86 3.38 15.52-.01l20.09-14.65 20.05 14.62c2.33 1.72 5.07 2.58 7.81 2.58 2.71 0 5.43-.84 7.75-2.53 4.7-3.4 6.61-9.36 4.79-14.77l-7.72-23.66 20.09-14.55c4.7-3.34 6.65-9.29 4.86-14.79-1.77-5.46-6.82-9.12-12.58-9.12l-24.86.05-7.62-23.67c0-.01 0-.01-.01-.02-1.77-5.46-6.82-9.12-12.56-9.12s-10.79 3.67-12.57 9.14l-7.65 23.68-24.88-.05c-5.73 0-10.76 3.67-12.51 9.04-1.84 5.47.07 11.44 4.77 14.83zm38.43-7.83h.01c3.47 0 6.54-2.24 7.61-5.54l6.79-21.02 6.77 21.01c1.06 3.3 4.14 5.54 7.61 5.54h.01l22.05-.04-17.85 12.93c-2.81 2.04-3.99 5.65-2.91 8.95l6.84 20.97-17.8-12.98c-2.81-2.05-6.61-2.05-9.42 0l-17.83 13 6.86-20.98c1.08-3.3-.1-6.93-2.91-8.96l-17.87-12.92zm-363.71 7.83 20.16 14.58-7.74 23.67c-1.78 5.48.15 11.4 4.81 14.75 4.63 3.38 10.86 3.38 15.52-.01l20.09-14.65 20.05 14.62c2.33 1.72 5.07 2.58 7.81 2.58 2.71 0 5.43-.84 7.75-2.53 4.64-3.36 6.57-9.29 4.79-14.77l-7.72-23.66 20.09-14.55c4.7-3.35 6.65-9.29 4.86-14.79-1.77-5.46-6.82-9.13-12.58-9.13l-24.87.05-7.65-23.68v-.01c-1.77-5.46-6.81-9.13-12.54-9.13-5.74 0-10.79 3.67-12.57 9.14l-7.65 23.68-24.88-.05c-5.74 0-10.79 3.67-12.56 9.13-1.76 5.47.18 11.4 4.83 14.76zm38.43-7.83h.01c3.47 0 6.54-2.24 7.61-5.54l6.78-20.99 6.78 20.99c1.07 3.3 4.14 5.54 7.61 5.54h.01l22.05-.04-17.85 12.93c-2.81 2.04-3.99 5.65-2.91 8.95l6.84 20.97-17.8-12.98c-2.81-2.05-6.61-2.05-9.42 0l-17.83 13 6.86-20.98c1.08-3.3-.1-6.93-2.91-8.96l-17.87-12.92z"/></svg>