<svg id="Layer_1" fill='white' height="512" viewBox="0 0 64 64" width="512" xmlns="http://www.w3.org/2000/svg" data-name="Layer 1"><path d="m43 22.18164a1 1 0 0 0 -1-1h-1.2666a9.1026 9.1026 0 0 0 -.56641-1.36328l.897-.897a.99964.99964 0 0 0 0-1.41407l-2.57131-2.57129a.99964.99964 0 0 0 -1.41407 0l-.897.897a9.1209 9.1209 0 0 0 -1.36328-.56641v-1.26659a1 1 0 0 0 -1-1h-3.63669a1 1 0 0 0 -1 1v1.2666a9.1026 9.1026 0 0 0 -1.36328.56641l-.897-.897a.99964.99964 0 0 0 -1.41407 0l-2.57129 2.57131a.99964.99964 0 0 0 0 1.41407l.897.897a9.1209 9.1209 0 0 0 -.56641 1.36328h-1.26659a1 1 0 0 0 -1 1v3.63672a1 1 0 0 0 1 1h1.2666a9.1026 9.1026 0 0 0 .56641 1.36328l-.897.897a.99964.99964 0 0 0 0 1.41407l2.57131 2.57126a.99964.99964 0 0 0 1.41407 0l.897-.897a9.1209 9.1209 0 0 0 1.36328.56641v1.26659a1 1 0 0 0 1 1h3.63672a1 1 0 0 0 1-1v-1.2666a9.1026 9.1026 0 0 0 1.36328-.56641l.897.897a.99964.99964 0 0 0 1.41407 0l2.57126-2.57131a.99964.99964 0 0 0 0-1.41407l-.897-.897a9.1209 9.1209 0 0 0 .56641-1.36328h1.26659a1 1 0 0 0 1-1zm-2 2.63672h-.34766a1.90892 1.90892 0 0 0 -1.812 1.35352 7.14723 7.14723 0 0 1 -.46728 1.125 1.909 1.909 0 0 0 .32275 2.24169l.24707.24707-1.15723 1.15723-.24707-.24707a1.9075 1.9075 0 0 0 -2.24121-.32275 7.17135 7.17135 0 0 1 -1.12548.46728 1.90892 1.90892 0 0 0 -1.35352 1.812v.34767h-1.63673v-.34766a1.90892 1.90892 0 0 0 -1.35352-1.812 7.14723 7.14723 0 0 1 -1.125-.46728 1.90926 1.90926 0 0 0 -2.24169.32275l-.24707.24707-1.15723-1.15723.24707-.24707a1.90842 1.90842 0 0 0 .32275-2.24121 7.17135 7.17135 0 0 1 -.46728-1.12548 1.90892 1.90892 0 0 0 -1.812-1.35352h-.34767v-1.63673h.34766a1.90892 1.90892 0 0 0 1.812-1.35352 7.14723 7.14723 0 0 1 .46728-1.125 1.909 1.909 0 0 0 -.32275-2.24169l-.24707-.24707 1.15723-1.15723.24707.24707a1.90716 1.90716 0 0 0 2.24121.32275 7.17135 7.17135 0 0 1 1.12548-.46728 1.90892 1.90892 0 0 0 1.35352-1.812v-.34767h1.63672v.34766a1.90892 1.90892 0 0 0 1.35352 1.812 7.14723 7.14723 0 0 1 1.125.46728 1.90851 1.90851 0 0 0 2.24169-.32275l.24707-.24707 1.15723 1.15723-.24707.24707a1.90842 1.90842 0 0 0 -.32275 2.24121 7.17135 7.17135 0 0 1 .46728 1.12548 1.90892 1.90892 0 0 0 1.812 1.35352h.34768z"/><path d="m32 18a6 6 0 1 0 6 6 6.00657 6.00657 0 0 0 -6-6zm0 10a4 4 0 1 1 4-4 4.00458 4.00458 0 0 1 -4 4z"/><path d="m3 63h58a.99987.99987 0 0 0 .919-1.394l-6-14a.99939.99939 0 0 0 -.919-.606h-12v2h11.34082l5.14258 12h-54.9668l5.14258-12h11.34082v-2h-12a.99939.99939 0 0 0 -.919.606l-6 14a.99987.99987 0 0 0 .919 1.394z"/><path d="m29 38h2v6h-2z"/><path d="m29 46h2v2h-2z"/><path d="m29 50h2v5h-2z"/><path d="m33 38h2v7h-2z"/><path d="m33 47h2v8h-2z"/><path d="m37 40h2v9h-2z"/><path d="m25 51h2v2h-2z"/><path d="m25 39h2v10h-2z"/><path d="m37 51h2v2h-2z"/><path d="m48 4a1 1 0 0 0 -1 1v6a1 1 0 0 0 1 1h3v2h-2a1 1 0 0 0 -1 1v5a1 1 0 0 0 1 1h5a1 1 0 0 0 1-1v-2h5a1 1 0 0 0 1-1v-8a1 1 0 0 0 -1-1h-5v-3a1 1 0 0 0 -1-1zm1 6v-4h4v2h-1a1 1 0 0 0 -1 1v1zm4 9h-3v-3h1v1a1 1 0 0 0 1 1h1zm6-9v6h-6v-6z"/><path d="m35 9a1 1 0 0 0 1-1v-6a1 1 0 0 0 -1-1h-6a1 1 0 0 0 -1 1v6a1 1 0 0 0 1 1zm-5-6h4v4h-4z"/><path d="m4 31h6a1 1 0 0 0 1-1v-3h5a1 1 0 0 0 1-1v-8a1 1 0 0 0 -1-1h-8a1 1 0 0 0 -1 1v5h-3a1 1 0 0 0 -1 1v6a1 1 0 0 0 1 1zm5-12h6v6h-6zm-4 6h2v1a1 1 0 0 0 1 1h1v2h-4z"/><path d="m10 14h5a1 1 0 0 0 1-1v-5a1 1 0 0 0 -1-1h-5a1 1 0 0 0 -1 1v5a1 1 0 0 0 1 1zm1-5h3v3h-3z"/><path d="m47 31a1 1 0 0 0 -1 1v4a1 1 0 0 0 1 1h4a1 1 0 0 0 1-1v-4a1 1 0 0 0 -1-1zm3 4h-2v-2h2z"/><path d="m11.69287 52h7.30713v-2h-8a1.0005 1.0005 0 0 0 -.93652.64893l-3 8a1.00017 1.00017 0 0 0 .93652 1.35107h48a1.00017 1.00017 0 0 0 .93652-1.35107l-3-8a1.0005 1.0005 0 0 0 -.93652-.64893h-8v2h7.30713l2.25 6h-45.11426z"/></svg>