<svg width="498" height="512" viewBox="0 0 498 512" fill="none" xmlns="http://www.w3.org/2000/svg">
<path d="M8.15478 93.96C12.2978 93.96 15.6548 90.602 15.6548 86.46V26.33C15.6548 20.083 20.7378 15 26.9848 15H399.024C405.271 15 410.354 20.083 410.354 26.33V210.17C410.354 214.312 413.711 217.67 417.854 217.67C421.997 217.67 425.354 214.312 425.354 210.17V26.33C425.354 11.811 413.542 0 399.024 0H26.9848C12.4668 0 0.654785 11.812 0.654785 26.33V86.46C0.654785 90.602 4.01278 93.96 8.15478 93.96Z" fill="white"/>
<path d="M401.71 342.513C401.71 321.052 384.246 303.593 362.78 303.593C341.319 303.593 323.86 321.052 323.86 342.513C323.86 363.979 341.319 381.443 362.78 381.443C384.246 381.443 401.71 363.979 401.71 342.513ZM338.86 342.513C338.86 329.323 349.59 318.593 362.78 318.593C375.975 318.593 386.71 329.323 386.71 342.513C386.71 355.708 375.976 366.443 362.78 366.443C349.591 366.443 338.86 355.708 338.86 342.513Z" fill="white"/>
<path d="M471.015 425H425.35V412.991C434.732 416.34 445.484 412.634 450.636 403.708L459.703 387.993C462.515 383.129 463.263 377.46 461.808 372.03C460.354 366.604 456.875 362.067 452.011 359.256L443.791 354.507C444.381 350.525 444.679 346.509 444.679 342.51C444.679 338.511 444.381 334.495 443.791 330.513L452.013 325.763C462.05 319.961 465.5 307.072 459.705 297.032L450.635 281.311C445.484 272.388 434.739 268.68 425.354 272.027V245.15C425.354 241.008 421.997 237.65 417.854 237.65C413.711 237.65 410.354 241.008 410.354 245.15V275.852C404.943 271.976 399.109 268.786 392.889 266.334V256.86C392.889 245.264 383.455 235.83 371.86 235.83H353.7C342.104 235.83 332.67 245.264 332.67 256.86V266.334C325.156 269.296 318.196 273.318 311.879 278.348L303.661 273.6C293.61 267.816 280.725 271.277 274.935 281.309L265.853 297.032C260.059 307.073 263.51 319.962 273.549 325.766L281.777 330.516C281.187 334.499 280.889 338.516 280.889 342.511C280.889 346.506 281.187 350.522 281.777 354.506L273.546 359.258C263.504 365.063 260.054 377.954 265.856 387.992L274.934 403.71C280.727 413.745 293.614 417.205 303.672 411.415L311.879 406.673C318.195 411.702 325.157 415.725 332.67 418.687V425H98.9848C84.4608 425 72.6438 436.812 72.6438 451.335L72.6548 467.92C72.6548 483.545 60.2198 496.587 44.8998 496.994C44.6588 497.002 44.4158 497 44.1628 497C36.5468 496.992 29.3878 494.028 24.0078 488.656C18.6218 483.27 15.6548 476.112 15.6548 468.5V121.44C15.6548 117.298 12.2978 113.94 8.15478 113.94C4.01178 113.94 0.654785 117.298 0.654785 121.44V468.5C0.654785 480.119 5.18179 491.044 13.4048 499.267C21.6168 507.466 32.5338 511.988 44.1748 512H214.425C218.568 512 221.925 508.642 221.925 504.5C221.925 500.358 218.568 497 214.425 497H76.7068C83.5068 489.197 87.6548 478.984 87.6548 467.915L87.6438 451.33C87.6438 445.082 92.7318 440 98.9848 440H471.014C477.261 440 482.344 445.083 482.344 451.33V468.5C482.344 476.109 479.379 483.269 474.004 488.653C468.613 494.036 461.454 497 453.844 497H249.424C245.281 497 241.924 500.358 241.924 504.5C241.924 508.642 245.281 512 249.424 512H453.844C465.456 512 476.38 507.478 484.612 499.259C492.823 491.035 497.344 480.112 497.344 468.5V451.33C497.345 436.812 485.533 425 471.015 425ZM410.35 425H392.89V418.686C399.108 416.235 404.941 413.046 410.35 409.172V425ZM342.45 406.255C333.223 403.311 324.918 398.511 317.762 391.988C315.35 389.788 311.787 389.401 308.957 391.037L296.178 398.421C293.289 400.083 289.588 399.092 287.923 396.21L278.842 380.488C277.178 377.609 278.17 373.911 281.049 372.246L293.849 364.856C296.673 363.226 298.12 359.957 297.428 356.77C296.407 352.065 295.889 347.268 295.889 342.511C295.889 337.754 296.407 332.957 297.428 328.252C298.12 325.065 296.673 321.796 293.849 320.166L281.053 312.778C278.172 311.113 277.182 307.413 278.843 304.532L287.925 288.81C289.587 285.93 293.29 284.939 296.167 286.595L308.957 293.985C311.784 295.62 315.348 295.234 317.762 293.034C324.917 286.511 333.223 281.711 342.45 278.767C345.559 277.775 347.67 274.886 347.67 271.622V256.862C347.67 253.537 350.375 250.832 353.7 250.832H371.86C375.184 250.832 377.889 253.537 377.889 256.862V271.622C377.889 274.886 379.999 277.775 383.109 278.767C392.336 281.711 400.641 286.511 407.797 293.034C410.21 295.235 413.774 295.62 416.603 293.985L429.395 286.6C432.283 284.937 435.981 285.929 437.644 288.81L446.715 304.531C448.378 307.413 447.388 311.113 444.508 312.778L431.718 320.168C428.895 321.799 427.448 325.068 428.141 328.254C429.162 332.954 429.68 337.751 429.68 342.512C429.68 347.273 429.162 352.07 428.141 356.77C427.449 359.957 428.895 363.225 431.718 364.856L444.506 372.245C445.902 373.052 446.902 374.355 447.319 375.914C447.736 377.471 447.522 379.095 446.714 380.494L437.644 396.213C435.982 399.095 432.282 400.088 429.398 398.426L416.603 391.039C413.774 389.403 410.21 389.789 407.797 391.99C400.642 398.513 392.336 403.313 383.109 406.257C380 407.249 377.889 410.138 377.889 413.402V425H347.669V413.4C347.67 410.136 345.56 407.247 342.45 406.255Z" fill="white"/>
<path d="M230.771 112.818C236.626 109.567 240.264 103.326 240.264 96.53V52.76C240.264 48.618 236.907 45.26 232.764 45.26C228.621 45.26 225.264 48.618 225.264 52.76V96.53C225.264 97.88 224.584 99.096 223.491 99.703C221.544 100.783 219.014 98.547 218.733 98.288C215.677 95.491 210.933 95.7 208.136 98.756C205.339 101.811 205.549 106.555 208.604 109.352C211.916 112.383 216.94 115.009 222.434 115.009C225.147 115.01 227.978 114.368 230.771 112.818Z" fill="white"/>
<path d="M281.855 60.76C285.998 60.76 289.355 57.402 289.355 53.26C289.355 49.118 285.998 45.76 281.855 45.76H258.99C254.847 45.76 251.49 49.118 251.49 53.26V107.525C251.49 111.667 254.847 115.025 258.99 115.025H281.855C285.998 115.025 289.355 111.667 289.355 107.525C289.355 103.383 285.998 100.025 281.855 100.025H266.49V87.892H280.169C284.312 87.892 287.669 84.534 287.669 80.392C287.669 76.25 284.312 72.892 280.169 72.892H266.49V60.76H281.855Z" fill="white"/>
<path d="M327.646 60.26C331.631 60.26 335.473 61.433 338.757 63.651C342.189 65.97 346.851 65.067 349.17 61.635C351.488 58.203 350.586 53.541 347.153 51.222C341.381 47.322 334.634 45.26 327.645 45.26C308.411 45.26 292.762 60.908 292.762 80.143C292.762 99.378 308.41 115.026 327.645 115.026C335.35 115.026 342.271 112.489 347.663 107.689C348.72 106.748 349.723 105.713 350.643 104.614C353.304 101.439 352.887 96.709 349.712 94.048C346.538 91.388 341.807 91.804 339.147 94.979C338.692 95.522 338.2 96.031 337.686 96.488C335.049 98.836 331.67 100.026 327.645 100.026C316.681 100.026 307.762 91.107 307.762 80.143C307.762 69.179 316.683 60.26 327.646 60.26Z" fill="white"/>
<path d="M401.938 52.76C401.938 48.618 398.581 45.26 394.438 45.26H364.194C360.051 45.26 356.694 48.618 356.694 52.76C356.694 56.902 360.051 60.26 364.194 60.26H371.756V107.525C371.756 111.667 375.113 115.025 379.256 115.025C383.399 115.025 386.756 111.667 386.756 107.525V60.26H394.439C398.581 60.26 401.938 56.902 401.938 52.76Z" fill="white"/>
<path d="M85.7407 107.525C85.7407 111.667 89.0977 115.025 93.2407 115.025C97.3837 115.025 100.741 111.667 100.741 107.525V93.757L117.22 112.48C118.702 114.165 120.773 115.025 122.853 115.025C124.613 115.025 126.38 114.409 127.805 113.155C130.914 110.418 131.216 105.679 128.48 102.57L115.227 87.512C124.022 84.548 130.351 76.472 130.351 66.993C130.351 55.009 120.241 45.26 107.813 45.26H93.2597C91.2667 45.26 89.3547 46.053 87.9477 47.465C86.5407 48.877 85.7537 50.791 85.7597 52.784L85.7407 107.525ZM107.812 60.26C111.898 60.26 115.35 63.343 115.35 66.993C115.35 70.643 111.898 73.726 107.812 73.726C106.162 73.726 103.452 73.736 100.819 73.749C100.806 71.192 100.79 62.945 100.782 60.26H107.812Z" fill="white"/>
<path d="M32.0708 107.525C32.0708 111.667 35.4278 115.025 39.5708 115.025C43.7138 115.025 47.0708 111.667 47.0708 107.525V91.196C49.9548 91.182 53.0038 91.169 54.8198 91.169C67.6438 91.169 78.0768 80.871 78.0768 68.214C78.0768 55.557 67.6448 45.26 54.8198 45.26H39.5708C37.5778 45.26 35.6668 46.053 34.2588 47.465C32.8518 48.876 32.0648 50.79 32.0708 52.783V107.525ZM54.8198 60.26C59.2958 60.26 63.0768 63.903 63.0768 68.215C63.0768 72.527 59.2958 76.17 54.8198 76.17C53.0158 76.17 50.0038 76.182 47.1348 76.197C47.1198 73.222 47.0998 63.38 47.0918 60.261H54.8198V60.26Z" fill="white"/>
<path d="M204.712 80.142C204.712 60.908 189.064 45.259 169.829 45.259C150.594 45.259 134.946 60.907 134.946 80.142C134.946 99.377 150.594 115.025 169.829 115.025C189.064 115.025 204.712 99.377 204.712 80.142ZM149.946 80.142C149.946 69.179 158.865 60.259 169.829 60.259C180.793 60.259 189.712 69.178 189.712 80.142C189.712 91.106 180.793 100.025 169.829 100.025C158.865 100.025 149.946 91.106 149.946 80.142Z" fill="white"/>
<path d="M48.8779 137.541C48.8779 141.683 52.2349 145.041 56.3779 145.041H369.632C373.775 145.041 377.132 141.683 377.132 137.541C377.132 133.399 373.775 130.041 369.632 130.041H56.3779C52.2349 130.041 48.8779 133.398 48.8779 137.541Z" fill="white"/>
<path d="M188.896 163.96H63.4787C47.7127 163.96 34.8867 176.787 34.8867 192.553V260.106C34.8867 275.872 47.7127 288.699 63.4787 288.699H188.895C204.662 288.699 217.488 275.872 217.488 260.106V192.553C217.488 176.786 204.662 163.96 188.896 163.96ZM202.488 260.106C202.488 267.601 196.39 273.699 188.895 273.699H63.4787C55.9847 273.699 49.8867 267.601 49.8867 260.106V192.553C49.8867 185.058 55.9847 178.96 63.4787 178.96H188.895C196.39 178.96 202.488 185.058 202.488 192.553V260.106Z" fill="white"/>
<path d="M391.074 200.391C391.074 196.249 387.717 192.891 383.574 192.891H243.907C239.764 192.891 236.407 196.249 236.407 200.391C236.407 204.533 239.764 207.891 243.907 207.891H383.574C387.717 207.891 391.074 204.533 391.074 200.391Z" fill="white"/>
<path d="M337.203 229.322C337.203 225.18 333.846 221.822 329.703 221.822H243.907C239.764 221.822 236.407 225.18 236.407 229.322C236.407 233.464 239.764 236.822 243.907 236.822H329.703C333.846 236.822 337.203 233.464 337.203 229.322Z" fill="white"/>
<path d="M34.8877 315.117C34.8877 319.259 38.2447 322.617 42.3877 322.617H243.908C248.051 322.617 251.408 319.259 251.408 315.117C251.408 310.975 248.051 307.617 243.908 307.617H42.3877C38.2447 307.617 34.8877 310.975 34.8877 315.117Z" fill="white"/>
<path d="M251.407 372.98C251.407 368.838 248.05 365.48 243.907 365.48H42.3877C38.2447 365.48 34.8877 368.838 34.8877 372.98C34.8877 377.122 38.2447 380.48 42.3877 380.48H243.908C248.05 380.48 251.407 377.122 251.407 372.98Z" fill="white"/>
<path d="M42.3877 395.24C38.2447 395.24 34.8877 398.598 34.8877 402.74C34.8877 406.882 38.2447 410.24 42.3877 410.24H139.158C143.301 410.24 146.658 406.882 146.658 402.74C146.658 398.598 143.301 395.24 139.158 395.24H42.3877Z" fill="white"/>
<path d="M264.376 344.049C264.376 339.907 261.019 336.549 256.876 336.549H42.3877C38.2447 336.549 34.8877 339.907 34.8877 344.049C34.8877 348.191 38.2447 351.549 42.3877 351.549H256.876C261.019 351.549 264.376 348.191 264.376 344.049Z" fill="white"/>
<path d="M114.846 219.827H68.0659C63.9229 219.827 60.5659 223.185 60.5659 227.327V257.256C60.5659 261.398 63.9229 264.756 68.0659 264.756H114.845C118.988 264.756 122.345 261.398 122.345 257.256V227.327C122.346 223.185 118.988 219.827 114.846 219.827ZM107.346 249.755H75.5659V234.826H107.345L107.346 249.755Z" fill="white"/>
<path d="M184.309 192.226H137.53C133.387 192.226 130.03 195.584 130.03 199.726V257.256C130.03 261.398 133.387 264.756 137.53 264.756H184.309C188.452 264.756 191.809 261.398 191.809 257.256V199.726C191.809 195.584 188.451 192.226 184.309 192.226ZM176.809 249.755H145.03V207.225H176.809V249.755Z" fill="white"/>
</svg>
